<?xml version="1.0" encoding="utf-8"?>
<!-- Generator: Adobe Illustrator 19.1.0, SVG Export Plug-In . SVG Version: 6.00 Build 0)  -->
<svg version="1.1" id="Logo" xmlns="http://www.w3.org/2000/svg" xmlns:xlink="http://www.w3.org/1999/xlink" x="0px" y="0px"
	 viewBox="0 0 631.8 245.3" style="enable-background:new 0 0 631.8 245.3;" xml:space="preserve">
<style type="text/css">
	.st0{display:none;}
	.st1{display:inline;opacity:0.1;fill:#636466;}
</style>
<path d="M83.7,119.1c1.7-4.6,2.3-7.4,2.3-9s-0.6-2-1.2-2c-2.5,0-6.8,5.7-7.7,7.6l-2.6-1.6c2.8-5.3,11-13.6,17.2-13.6
	c2.9,0,4.4,1.5,4.4,6c0,3.5-2.3,9.1-5.6,18.1l-3.3,9c-0.4,1.2-1.9,5.2-1.9,6.9c0,1.1,0.5,2,1.9,2c3.5,0,8.2-6.8,9.5-9.2l2.7,1.5
	c-2.8,5.8-10,14.6-17.8,14.6c-3.5,0-5.2-1.7-5.2-5.8c0-3.4,1.2-7,3.3-13.1L83.7,119.1z M91.2,80.4c0-3.2,2.4-5.8,5.5-5.8
	c3.3,0,5.7,2.7,5.7,5.7c0,3.1-2.6,5.5-5.7,5.5C93.8,85.8,91.2,83.6,91.2,80.4z"/>
<path d="M164.9,107.6c0-1.9-0.5-2.6-1.8-2.6c-3.2,0-7.7,4.5-12.8,12.6c-3.6,5.8-5.3,10-12.6,30.7h-8.4l5.9-17.9
	c5-15.1,6.4-20.1,6.4-22.6c0-1.9-0.8-2.9-2.2-2.9c-4.7,0-14,11.9-18.2,23.2l-7.5,20.2h-7.8l6.6-20.4c4.4-13.9,5.6-18,5.6-20.3
	c0-1.6-0.5-2.5-1.5-2.5c-2.6,0-7.2,6.8-9.8,14.3l-2.7-1.3c4.2-12.1,9.2-17.9,15.8-17.9c3.8,0,5.2,2,5.2,6.9c0,2.8-0.4,5.4-1.5,8.2
	l0.3,0.3c5.4-10.1,11.4-15.4,17.5-15.4c4.6,0,7.4,3,7.4,7.9c0,1.7-0.4,3.4-1.5,7.6l0.2,0.3c6.7-11.3,11.7-15.7,17.9-15.7
	c4.6,0,6.9,2.4,6.9,7.7c0,3.4-1.2,7.5-4.4,17c-4.1,12.2-4.4,13.5-4.4,15.6c0,1.2,0.3,1.7,0.9,1.7c1.8,0,5.2-3.3,10.9-10.4l2.3,1.2
	c-4,7.9-13.3,16.1-18.3,16.1c-2.9,0-4.8-2.8-4.8-7c0-2.9,0.9-5.9,7-23.5C164.6,110,164.9,109.1,164.9,107.6z"/>
<path d="M185,126.3c0-4.4,3.7-7.9,8.1-7.9c4.2,0,7.9,3.5,7.9,7.9c0,4.4-3.6,7.9-8.1,7.9C188.7,134.2,185,130.7,185,126.3z"/>
<path d="M206.4,115.1c4.4-5,10-9.1,16-11.6l4.2-14.2h6.8l-3.1,11.8c1.9-0.4,3.7-0.6,5.6-0.6c10,0,15.9,5.8,15.9,15.5
	c0,15.6-16.1,28.4-33.7,30.7l-3.3,12.4c-0.5,1.8-0.7,2.9-0.7,3.8c0,2.9,2.1,4,8.3,4.1l-0.5,3.6h-25.1l0.5-3.6c5,0,6.9-1,7.8-4.1
	l16.1-54.9c-4.5,2.3-8.7,5.7-12.3,9.5L206.4,115.1z M229,105.3L219,143c11.9-2.3,23.5-13.6,23.5-26.4c0-7.1-3.6-11.7-9-11.7
	C232,104.9,230.5,105,229,105.3z"/>
<path d="M288,136.6c-5.1,8.4-11.6,12.7-19,12.7c-8.1,0-12.7-5.3-12.7-14.5c0-16.4,14.9-34.4,28.4-34.4c5.7,0,9.7,3.2,9.7,7.7
	c0,8.3-13.2,18.1-29.1,21.7c-0.3,1.7-0.4,3.3-0.4,4.9c0,6.3,2.4,9.7,6.8,9.7c4.4,0,9.3-3.6,13.3-9.7L288,136.6z M266.3,125.8
	c11.4-3.1,19.8-10.4,19.8-17.5c0-2.5-1.1-3.7-3.1-3.7C276.8,104.6,269.3,115,266.3,125.8z"/>
<path d="M333.6,134.6l2.3,1.2c-4.3,8.9-8.7,13.4-13.2,13.4c-2.8,0-4.4-1.7-6.6-6.9l-6-14.2l-2,0.9l-5.6,19.4h-8.1l17.2-63.7
	c0.4-1.7,0.6-2.6,0.6-3.3c0-2.5-1.8-3.2-8.3-3.2l0.8-2.7l17.7-0.9l-9.2,34.2l0.4,0.1c3.4-5.7,7.8-8.6,13.1-8.6c5.5,0,9,2.8,9,7.4
	c0,5.5-5.9,11.5-15.6,15.9l-2.3,1.1l4.5,11.7c1.2,3.4,2.5,4.9,4.1,4.9C328.1,141.3,330.5,139.1,333.6,134.6z M326.8,110
	c0-2.3-1.3-3.6-3.6-3.6c-4.9,0-11.5,8.4-14.1,18.2C319.3,121,326.8,114.8,326.8,110z"/>
<path d="M341,126.3c0-4.4,3.7-7.9,8.1-7.9c4.2,0,7.9,3.5,7.9,7.9c0,4.4-3.6,7.9-8.1,7.9C344.7,134.2,341,130.7,341,126.3z"/>
<path d="M405,101.3h7.4l-5.1,13.6c-3.4,9-6.6,21.5-6.6,25.4c0,1.7,0.6,2.6,1.7,2.6c1.7,0,5-3.8,8.9-9.2l2.3,1.9
	c-4.9,8.7-11,13.8-16.4,13.8c-2.8,0-4.3-2-4.3-6.7c0-1.1,0.1-2.4,0.3-4.7l-0.4-0.1c-3.5,6.6-10.2,11.5-16.1,11.5
	c-6,0-9.6-4.9-9.6-12.9c0-16.4,15.3-36,28.1-36c3.9,0,6.3,1.8,7.8,5.9L405,101.3z M375.7,136c0,4.3,2,7,5,7c8.3,0,18.8-21.5,18.8-33
	c0-3.1-1.4-5-3.6-5C386.8,105,375.7,123.7,375.7,136z"/>
<path d="M418.4,126.3c0-4.4,3.7-7.9,8.1-7.9c4.2,0,7.9,3.5,7.9,7.9c0,4.4-3.6,7.9-8.1,7.9C422.1,134.2,418.4,130.7,418.4,126.3z"/>
<path d="M459.2,108.9l0.3,0.2c3.5-5.4,8.9-8.6,14.7-8.6c7.2,0,11.3,4.9,11.3,12.6c0,16.9-15.9,36.2-30.3,36.2
	c-6.8,0-11.6-4.5-11.6-11c0-3.1,1.3-8.8,3.8-16.6L458.2,87c0.6-2.1,1.3-4.6,1.3-5.7c0-2.1-2.1-3.1-6.8-3.1l0.7-2.7l17.1-0.8
	L459.2,108.9z M476.7,112.4c0-4.1-2.1-7.2-4.9-7.2c-8,0-19.7,19.2-19.7,32.3c0,4.8,1.5,7.3,4.5,7.3
	C464.8,144.8,476.7,125.7,476.7,112.4z"/>
<path d="M502.8,87c0.5-2.1,1.3-4.6,1.3-5.7c0-2.1-2.1-3.1-6.8-3.1l0.7-2.7l16.3-0.8l-15.9,58.4c-0.9,3.2-1.4,5.6-1.4,7.3
	c0,1.1,0.5,2,1.9,2c3.8,0,9-7.5,10.4-10.1l2.7,1.5c-3.6,8.1-11.8,15.5-17.3,15.5c-4.1,0-6-1.7-6-5.8c0-2.4,0.6-6.1,2.4-13.1
	L502.8,87z"/>
<path d="M550.4,136.6c-5.1,8.4-11.6,12.7-19,12.7c-8.1,0-12.7-5.3-12.7-14.5c0-16.4,14.9-34.4,28.4-34.4c5.7,0,9.7,3.2,9.7,7.7
	c0,8.3-13.2,18.1-29.1,21.7c-0.3,1.7-0.4,3.3-0.4,4.9c0,6.3,2.4,9.7,6.8,9.7c4.4,0,9.3-3.6,13.3-9.7L550.4,136.6z M528.6,125.8
	c11.4-3.1,19.8-10.4,19.8-17.5c0-2.5-1.1-3.7-3.1-3.7C539.1,104.6,531.6,115,528.6,125.8z"/>
<g id="White_Space" class="st0">
	<path class="st1" d="M310.5,44.4c1.7-4.6,2.3-7.4,2.3-9c0-1.6-0.6-2-1.2-2c-2.5,0-6.8,5.7-7.7,7.6l-2.6-1.6
		c2.8-5.3,11-13.6,17.2-13.6c2.9,0,4.4,1.5,4.4,6c0,3.5-2.3,9.1-5.6,18.1l-3.3,9c-0.4,1.2-1.9,5.2-1.9,6.9c0,1.1,0.5,2,1.9,2
		c3.5,0,8.2-6.8,9.5-9.2l2.7,1.5c-2.8,5.8-10,14.6-17.8,14.6c-3.5,0-5.2-1.7-5.2-5.8c0-3.4,1.2-7,3.3-13.1L310.5,44.4z M318,5.8
		c0-3.2,2.4-5.8,5.5-5.8c3.3,0,5.7,2.7,5.7,5.7c0,3.1-2.6,5.5-5.7,5.5C320.6,11.2,318,9,318,5.8z"/>
	<path class="st1" d="M196.2,215.1c1.7-4.6,2.3-7.4,2.3-9c0-1.6-0.6-2-1.2-2c-2.5,0-6.8,5.7-7.7,7.6L187,210
		c2.8-5.3,11-13.6,17.2-13.6c2.9,0,4.4,1.5,4.4,6c0,3.5-2.3,9.1-5.6,18.1l-3.3,9c-0.4,1.2-1.9,5.2-1.9,6.9c0,1.1,0.5,2,1.9,2
		c3.5,0,8.2-6.8,9.5-9.2l2.7,1.5c-2.8,5.8-10,14.6-17.8,14.6c-3.5,0-5.2-1.7-5.2-5.8c0-3.4,1.2-7,3.3-13.1L196.2,215.1z
		 M203.8,176.4c0-3.2,2.4-5.8,5.5-5.8c3.3,0,5.7,2.7,5.7,5.7c0,3.1-2.6,5.5-5.7,5.5C206.4,181.8,203.8,179.6,203.8,176.4z"/>
	<path class="st1" d="M587.4,109.6c4.6,1.7,7.4,2.3,9,2.3s2-0.6,2-1.2c0-2.5-5.7-6.8-7.6-7.7l1.6-2.6c5.3,2.8,13.6,11,13.6,17.2
		c0,2.9-1.5,4.4-6,4.4c-3.5,0-9.1-2.3-18.1-5.6l-9-3.3c-1.2-0.4-5.2-1.9-6.9-1.9c-1.1,0-2,0.5-2,1.9c0,3.5,6.8,8.2,9.2,9.5l-1.5,2.7
		c-5.8-2.8-14.6-10-14.6-17.8c0-3.5,1.7-5.2,5.8-5.2c3.4,0,7,1.2,13.1,3.3L587.4,109.6z M626,117.2c3.2,0,5.8,2.4,5.8,5.5
		c0,3.3-2.7,5.7-5.7,5.7c-3.1,0-5.5-2.6-5.5-5.7C620.6,119.8,622.8,117.2,626,117.2z"/>
	<path class="st1" d="M44.4,129.3c-4.6-1.7-7.4-2.3-9-2.3c-1.6,0-2,0.6-2,1.2c0,2.5,5.7,6.8,7.6,7.7l-1.6,2.6
		c-5.3-2.8-13.6-11-13.6-17.2c0-2.9,1.5-4.4,6-4.4c3.5,0,9.1,2.3,18.1,5.6l9,3.3c1.2,0.4,5.2,1.9,6.9,1.9c1.1,0,2-0.5,2-1.9
		c0-3.5-6.8-8.2-9.2-9.5l1.5-2.7c5.8,2.8,14.6,10,14.6,17.8c0,3.5-1.7,5.2-5.8,5.2c-3.4,0-7-1.2-13.1-3.3L44.4,129.3z M5.8,121.8
		c-3.2,0-5.8-2.4-5.8-5.5c0-3.3,2.7-5.7,5.7-5.7c3.1,0,5.5,2.6,5.5,5.7C11.2,119.2,9,121.8,5.8,121.8z"/>
</g>
</svg>
