<svg xmlns="http://www.w3.org/2000/svg" viewBox="0 0 110 20"><style>.st9{fill:#0e2032}</style><circle cx="5.4" cy="4.6" r="2" fill="#633a84"/><circle cx="10.9" cy="4.6" r="2" fill="#ee558e"/><circle cx="16.2" cy="4.6" r="2" fill="#f49521"/><circle cx="5.4" cy="10" r="2" fill="#fad00a"/><circle cx="10.9" cy="10" r="2" fill="#3fa060"/><circle cx="16.2" cy="10" r="2" fill="#84b54b"/><circle cx="5.4" cy="15.4" r="2" fill="#1ac0e2"/><circle cx="10.9" cy="15.4" r="2" fill="#80d2ef"/><circle cx="16.2" cy="15.4" r="2" fill="#a29098"/><g><path class="st9" d="M25.5 11.9c0 2.3 1.5 3.9 4.1 3.9s4.1-1.6 4.1-3.9V2.3h1.8V12c0 3.2-2.2 5.5-6 5.5s-6-2.3-6-5.5V2.3h2v9.6zM38.5 17.3v-15h1.9v15h-1.9zM47.6 17.3v-15h10.2v3.1h-6.4v3.4h5.8v2.9h-5.8v5.6h-3.8zM58.5 13.9c0-2.2 1.7-3.4 4.7-3.5l2.7-.2v-.6c0-.9-.7-1.5-1.7-1.5s-1.7.5-1.8 1.2h-3.3c.1-2.3 2.1-3.9 5.3-3.9 3.1.1 5.1 1.6 5.1 4v7.9H66v-1.7h-.1c-.6 1.2-2 1.8-3.4 1.8-2.2.1-4-1.4-4-3.5zm7.5-.8v-.8l-2.1.1c-1.1.1-1.6.5-1.6 1.2s.6 1.2 1.6 1.2c1.1.1 2.1-.6 2.1-1.7zM79 10.2c-.1-1.2-.9-2-2-2-1.4 0-2.2 1.2-2.2 3.2 0 2.1.8 3.2 2.2 3.2 1.1 0 1.9-.7 2-1.9h3.4c-.1 2.9-2.2 4.7-5.4 4.7-3.6 0-5.9-2.3-5.9-6s2.2-6 5.8-6c3.2 0 5.3 1.9 5.4 4.8H79zM94.8 13.6c-.4 2.4-2.5 3.9-5.5 3.9-3.7 0-5.9-2.3-5.9-6s2.2-6.1 5.7-6.1 5.7 2.3 5.7 5.8v1H87v.2c0 1.4.9 2.4 2.3 2.4 1 0 1.8-.5 2.1-1.3l3.4.1zm-7.7-3.4h4.3c-.1-1.3-.9-2.1-2.1-2.1-1.3 0-2.2.8-2.2 2.1zM101.2 5.5c3.1 0 5.1 1.5 5.1 3.9h-3.4c0-.8-.7-1.4-1.8-1.4-.9 0-1.5.4-1.5 1 0 .5.4.8 1.3 1l2.4.5c2.3.5 3.3 1.4 3.3 3.2 0 2.4-2.2 3.9-5.4 3.9-3.3 0-5.3-1.5-5.4-3.9h3.6c.1.9.8 1.4 1.9 1.4 1 0 1.7-.4 1.7-1 0-.5-.4-.7-1.3-.9l-2.1-.6c-2.3-.5-3.5-1.7-3.5-3.4 0-2.3 2-3.7 5.1-3.7z"/></g></svg>