<svg xmlns="http://www.w3.org/2000/svg" width="136.951" height="89.066" viewBox="0 0 136.951 89.066"><defs><style>.a{fill:#e0e0e0;}.b{fill:none;stroke:#ff40bf;stroke-linecap:round;stroke-linejoin:round;}</style></defs><g transform="translate(0 0)"><path class="a" d="M83.906,25.5,93.947,49.339l26.036,2.354a2.921,2.921,0,0,1,1.618,5.146l-19.79,16.724,6.044,25.624a2.929,2.929,0,0,1-4.393,3.155L81.22,88.539,58.954,102.359A2.929,2.929,0,0,1,54.56,99.2L60.6,73.563,40.814,56.839a2.921,2.921,0,0,1,1.618-5.146l26.036-2.354L78.5,25.5a2.929,2.929,0,0,1,5.4,0Z" transform="translate(-39.772 -23.696)"/></g><g transform="translate(27.03 21.476)"><path class="b" d="M149.606,117.329h13.754c8.091,0,19.24-5,19.24-19.313,0-11.408-11.505-19.637-20.632-20.988a17.863,17.863,0,0,0,.364-3.471c.065-12.8-10.162-22.654-23.415-23.286-17.355-.809-24.159,13.431-25.68,19.022-16.991-3.358-28.116,7.031-26.5,22.46-.267,0-.542-.073-.809-.073A12.963,12.963,0,0,0,73.18,104.7c0,5.267,3.544,12.63,13.876,12.63h62.615Z" transform="translate(-73.18 -50.239)"/></g></svg>