<svg xmlns="http://www.w3.org/2000/svg" xmlns:xlink="http://www.w3.org/1999/xlink" width="336" height="179" viewBox="0 0 336 179"><defs><style>.a{fill:#ffec96;}.b{fill:#ffd01a;opacity:0.558;}.c{fill:#fece47;opacity:0.389;}.d{filter:url(#c);}.e{filter:url(#a);}</style><filter id="a" x="146.712" y="36.34" width="127.197" height="88.645" filterUnits="userSpaceOnUse"><feOffset dy="3" input="SourceAlpha"/><feGaussianBlur stdDeviation="3" result="b"/><feFlood flood-opacity="0.161"/><feComposite operator="in" in2="b"/><feComposite in="SourceGraphic"/></filter><filter id="c" x="62.167" y="65.993" width="127.197" height="88.645" filterUnits="userSpaceOnUse"><feOffset dy="3" input="SourceAlpha"/><feGaussianBlur stdDeviation="3" result="d"/><feFlood flood-opacity="0.161"/><feComposite operator="in" in2="d"/><feComposite in="SourceGraphic"/></filter></defs><rect class="a" width="336" height="179" rx="4" transform="translate(0 0)"/><g transform="translate(71.167 42.34)"><g class="e" transform="matrix(1, 0, 0, 1, -71.17, -42.34)"><path class="b" d="M7.5,0H95.95a7.5,7.5,0,0,1,7.5,7.5V57.423l5.75,13.222L96.061,65.216H7.5A7.5,7.5,0,0,1,0,57.72V7.5A7.5,7.5,0,0,1,7.5,0Z" transform="translate(155.71 42.34)"/></g><g class="d" transform="matrix(1, 0, 0, 1, -71.17, -42.34)"><path class="c" d="M101.7,0H13.246a7.5,7.5,0,0,0-7.5,7.5V57.423L0,70.644l13.136-5.428H101.7a7.5,7.5,0,0,0,7.5-7.5V7.5A7.5,7.5,0,0,0,101.7,0Z" transform="translate(71.17 71.99)"/></g></g></svg>