<svg xmlns="http://www.w3.org/2000/svg" xmlns:xlink="http://www.w3.org/1999/xlink" width="672" height="358" viewBox="0 0 336 179"><defs><style>.a{fill:#ffec96;}.b{clip-path:url(#a);}.c{fill:#f4f4f4;}.d{fill:#a3a3a3;}.e,.j{fill:none;stroke-linecap:round;}.e{stroke:#e055b2;stroke-miterlimit:10;}.f{fill:#7a1d5b;}.g{fill:#ff40bf;}.h{fill:#d1d3d4;}.i{fill:#ffcbee;}.j{stroke:#fff;stroke-linejoin:round;}.k{fill:#c16ba4;}.l{fill:#988792;}.m{fill:#ccc;}</style><clipPath id="a"><rect class="a" width="336" height="179" rx="4" transform="translate(118 3024)"/></clipPath></defs><g class="b" transform="translate(-118 -3024)"><g transform="translate(118 3024)"><rect class="c" width="336" height="179"/><path class="d" d="M257.53,87.44a2.7,2.7,0,0,1,2.7,2.69v30.41H204.41V87.44h53.12m0-1H203.41v35.1h57.82V90.13a3.69,3.69,0,0,0-3.7-3.69Z"/><path class="d" d="M188.13,42.28a1.81,1.81,0,0,1,1.8,1.8v57.61a1.81,1.81,0,0,1-1.8,1.8H93.2V44.08a1.81,1.81,0,0,1,1.8-1.8h93.12m0-1H95a2.8,2.8,0,0,0-2.81,2.8v60.41h95.93a2.8,2.8,0,0,0,2.8-2.8V44.08a2.8,2.8,0,0,0-2.8-2.8Z"/><path class="e" d="M242.49,30.57V48.9a2,2,0,0,1-2,2h-15.2L213.43,61.77a.49.49,0,0,1-.82-.36V50.9h-7.2a2,2,0,0,1-2-2V30.57a2,2,0,0,1,2-2h35.08a2,2,0,0,1,2,2Z"/><path class="f" d="M143,84.6h7.79a6.69,6.69,0,0,0,6.72-6.6l.59-36.65a17,17,0,0,1,17.32-16.63l2.26.05A20.7,20.7,0,0,1,197,39.26l2.9,9.22a1.52,1.52,0,0,1-1.48,2l-2.76-.06A1.63,1.63,0,0,0,194,52l-.11,7.84a5.19,5.19,0,0,1-5.29,5.12l-5.37-.11a4.69,4.69,0,0,0-4.78,4.59l-.07,3.8a10.69,10.69,0,0,0,10.47,10.91l19.85.41V101.5a18.87,18.87,0,0,1-18.87,18.87H143Z"/><path class="g" d="M196.53,103.11H165A6.25,6.25,0,0,1,158.73,97l-.55-34.27A15.87,15.87,0,0,0,142,47.16l-2.12.05a19.35,19.35,0,0,0-18.06,13.53l-2.71,8.61a1.41,1.41,0,0,0,1.38,1.84h2.58a1.51,1.51,0,0,1,1.54,1.49l.1,7.32a4.86,4.86,0,0,0,5,4.79l5-.11a4.38,4.38,0,0,1,4.47,4.29l.07,3.56a10,10,0,0,1-9.79,10.2l-37.24.38h0a33.47,33.47,0,0,0,33.47,33.47h37.48a33.41,33.41,0,0,0,33.41-33.42Z"/><path class="h" d="M175.59,120.29H184a6.26,6.26,0,0,0,6.25-6.15l.55-34.26A15.87,15.87,0,0,1,207,64.34h2.12A19.36,19.36,0,0,1,227.2,77.91l2.71,8.62a1.42,1.42,0,0,1-1.38,1.84L226,88.32a1.51,1.51,0,0,0-1.54,1.48l-.11,7.33a4.83,4.83,0,0,1-4.94,4.78l-5-.1a4.38,4.38,0,0,0-4.46,4.29l-.08,3.55a10.34,10.34,0,0,0,9.8,10.58H261.3v8.7a18.18,18.18,0,0,1-18.17,18.17H202.4a26.81,26.81,0,0,1-26.81-26.81Z"/><path class="i" d="M143,111.71v28.42a2.18,2.18,0,0,0,2.17,2.18H172l12.89,11.81a.53.53,0,0,0,.89-.39V142.31H201.6a2.18,2.18,0,0,0,2.17-2.18V111.71a2.17,2.17,0,0,0-2.17-2.17H145.21a2.18,2.18,0,0,0-2.21,2.17Z"/><path class="h" d="M74.77,37.62v21a1.6,1.6,0,0,0,1.6,1.6H96.19L105.72,69a.38.38,0,0,0,.65-.28v-8.5h11.69a1.61,1.61,0,0,0,1.6-1.61v-21a1.61,1.61,0,0,0-1.6-1.61H76.38a1.61,1.61,0,0,0-1.61,1.62Z"/><path class="j" d="M181.49,117.42l-4.66,3.29-4.66-3.29-4.66,3.29-4.66-3.29-4.67,3.29-4.67-3.29-4.66,3.29"/><path class="j" d="M181.49,124.96l-4.66,3.3-4.66-3.3-4.66,3.3-4.66-3.3-4.67,3.3-4.67-3.3-4.66,3.3"/><circle class="k" cx="2.22" cy="2.22" r="2.22" transform="translate(212.7 38.01)"/><circle class="l" cx="2.22" cy="2.22" r="2.22" transform="translate(220.53 38)"/><circle class="m" cx="2.22" cy="2.22" r="2.22" transform="translate(228.28 37.98)"/></g></g></svg>