<svg xmlns="http://www.w3.org/2000/svg" width="336.411" height="179.965" viewBox="0 0 336.411 179.965"><defs><style>.a{fill:#378ef0;}.b,.c{fill:#fff;}.b{fill-rule:evenodd;}</style></defs><rect class="a" width="336.411" height="179.965" rx="4" transform="translate(0 0)"/><g transform="translate(124.112 31.694)"><g transform="translate(4.361 0)"><path class="b" d="M330.143,58.431a39.926,39.926,0,0,0-12.621,77.8c2,.369,2.728-.867,2.728-1.921,0-.951-.037-4.1-.054-7.433-11.106,2.416-13.45-4.71-13.45-4.71-1.816-4.614-4.433-5.841-4.433-5.841-3.622-2.478.273-2.427.273-2.427,4.009.282,6.12,4.115,6.12,4.115,3.561,6.1,9.339,4.339,11.617,3.319A8.5,8.5,0,0,1,322.858,116c-8.867-1.009-18.189-4.433-18.189-19.73a15.45,15.45,0,0,1,4.113-10.715c-.415-1.006-1.781-5.066.387-10.566,0,0,3.352-1.072,10.981,4.093a37.85,37.85,0,0,1,19.993,0c7.62-5.165,10.968-4.093,10.968-4.093,2.173,5.5.806,9.559.391,10.566a15.419,15.419,0,0,1,4.109,10.715c0,15.334-9.339,18.709-18.229,19.7,1.432,1.24,2.708,3.668,2.708,7.393,0,5.342-.046,9.641-.046,10.956,0,1.063.719,2.308,2.742,1.916a39.928,39.928,0,0,0-12.643-77.8Z" transform="translate(-290.221 -58.431)"/><path class="c" d="M312.718,144.9c-.1.231-.465.3-.8.142s-.525-.466-.416-.7.463-.3.8-.145.529.469.413.7Zm-.571-.423" transform="translate(-295.148 -87.573)"/><path class="c" d="M315.171,147.475c-.221.2-.654.109-.947-.214a.709.709,0,0,1-.136-.964c.228-.205.648-.109.952.214s.363.756.131.964Zm-.442-.475" transform="translate(-298.301 -88.32)"/><path class="c" d="M317.543,150.861c-.284.2-.749.013-1.036-.4s-.284-.908.006-1.106.746-.019,1.037.389.283.915-.007,1.116Zm0,0" transform="translate(-299.102 -89.401)"/><path class="c" d="M320.7,154.239c-.254.28-.8.2-1.192-.178a.892.892,0,0,1-.263-1.185c.257-.28.8-.2,1.2.178s.525.907.254,1.185Zm0,0" transform="translate(-300.071 -92.901)"/><path class="c" d="M325.1,156.346c-.112.363-.634.528-1.159.373s-.868-.585-.762-.951.633-.538,1.162-.373.868.58.759.95Zm0,0" transform="translate(-301.459 -93.51)"/><path class="c" d="M330.022,156.809c.013.383-.432.7-.984.707s-1-.3-1.009-.674.436-.7.99-.71,1,.3,1,.677Zm0,0" transform="translate(-303.123 -93.695)"/><path class="c" d="M334.626,156.071c.066.373-.317.756-.865.858s-1.037-.132-1.105-.5.323-.766.861-.865,1.039.129,1.109.509Zm0,0" transform="translate(-304.699 -93.558)"/></g><g transform="translate(0 92.452)"><path class="c" d="M125.031,393.588H117.56a.349.349,0,0,0-.349.349v3.653a.35.35,0,0,0,.349.349h2.914v4.538a8.825,8.825,0,0,1-2.463.223c-2.135,0-5.116-.78-5.116-7.336s3.1-7.421,6.02-7.421a11.813,11.813,0,0,1,4.3.658.352.352,0,0,0,.418-.343l.833-3.529a.325.325,0,0,0-.133-.273c-.281-.2-1.995-1.159-6.324-1.159-4.988,0-10.1,2.122-10.1,12.322s5.857,11.72,10.793,11.72a12.151,12.151,0,0,0,6.566-1.746.3.3,0,0,0,.113-.265V393.937A.349.349,0,0,0,125.031,393.588Z" transform="translate(-107.908 -383.297)"/><path class="c" d="M283.349,387.177a.348.348,0,0,0-.347-.351H278.8a.35.35,0,0,0-.349.351v8.129h-6.557v-8.129a.348.348,0,0,0-.347-.351h-4.206a.349.349,0,0,0-.348.351v22.011a.35.35,0,0,0,.348.352h4.206a.349.349,0,0,0,.347-.352v-9.415h6.557l-.012,9.415a.351.351,0,0,0,.349.352H283a.349.349,0,0,0,.347-.352Z" transform="translate(-227.725 -385.955)"/><g transform="translate(19.636 1.372)"><g transform="translate(0 0)"><path class="c" d="M192.888,391.594a2.712,2.712,0,1,0-2.713,2.74A2.724,2.724,0,0,0,192.888,391.594Z" transform="translate(-187.463 -388.855)"/><path class="c" d="M193.253,426.54V416.38a.35.35,0,0,0-.348-.351h-4.193a.4.4,0,0,0-.364.391v14.557c0,.428.267.555.611.555h3.778c.414,0,.516-.2.516-.562Z" transform="translate(-188.129 -409.322)"/></g></g><path class="c" d="M355.547,416.163h-4.174a.35.35,0,0,0-.347.352v10.793a4.717,4.717,0,0,1-2.566.776c-1.5,0-1.9-.683-1.9-2.157v-9.412a.35.35,0,0,0-.347-.352h-4.237a.351.351,0,0,0-.348.352V426.64c0,4.377,2.44,5.448,5.8,5.448a9.784,9.784,0,0,0,4.973-1.521,8.871,8.871,0,0,0,.153.9.368.368,0,0,0,.307.191l2.7-.012a.351.351,0,0,0,.348-.351V416.515A.35.35,0,0,0,355.547,416.163Z" transform="translate(-283.936 -408.051)"/><path class="c" d="M417.107,393.573a7.848,7.848,0,0,0-3.983,1.058v-7.453a.349.349,0,0,0-.347-.351h-4.219a.349.349,0,0,0-.348.351v22.011a.35.35,0,0,0,.348.352h2.927a.349.349,0,0,0,.305-.187,6.868,6.868,0,0,0,.178-1.015,7.548,7.548,0,0,0,4.99,1.634c3.833,0,6.032-1.944,6.032-8.729S419.48,393.573,417.107,393.573Zm-1.646,12.4a5.007,5.007,0,0,1-2.43-.7V398.3a5.562,5.562,0,0,1,2.158-.7c1.5-.134,2.952.319,2.952,3.905C418.14,405.289,417.487,406.036,415.461,405.975Z" transform="translate(-334.088 -385.955)"/><path class="c" d="M225.061,402.579h-3.155l0-4.168c0-.158-.081-.237-.264-.237h-4.3c-.167,0-.257.074-.257.234v4.308s-2.155.52-2.3.562a.35.35,0,0,0-.252.335v2.707a.349.349,0,0,0,.348.352h2.2v6.512c0,4.837,3.393,5.312,5.682,5.312a9.6,9.6,0,0,0,2.5-.412.326.326,0,0,0,.2-.316l0-2.978a.355.355,0,0,0-.349-.351c-.184,0-.654.075-1.138.075-1.55,0-2.075-.721-2.075-1.654s0-6.189,0-6.189h3.156a.35.35,0,0,0,.348-.352V402.93A.349.349,0,0,0,225.061,402.579Z" transform="translate(-188.211 -394.502)"/></g></g></svg>