<svg xmlns="http://www.w3.org/2000/svg" xmlns:xlink="http://www.w3.org/1999/xlink" width="672" height="358" viewBox="0 0 336 179"><defs><style>.a{fill:#378ef0;}.b{clip-path:url(#a);}.c{fill:#f4f4f4;}.d{fill:#7a1d5b;fill-rule:evenodd;}</style><clipPath id="a"><rect class="a" width="336" height="179" rx="4" transform="translate(826 3024)"/></clipPath></defs><g class="b" transform="translate(-826 -3024)"><g transform="translate(826 3024)"><rect class="c" width="336" height="179"/><path class="d" d="M171,35.09a58.8,58.8,0,0,0-18.6,114.59c2.94.54,4-1.28,4-2.84,0-1.39,0-5.09-.08-10C140,140.4,136.53,129,136.53,129c-2.67-6.79-6.53-8.6-6.53-8.6-5.33-3.65.41-3.57.41-3.57,5.9.41,9,6,9,6,5.25,9,13.76,6.4,17.11,4.89.54-3.8,2.06-6.39,3.74-7.86-13.06-1.48-26.78-6.53-26.78-29.06A22.73,22.73,0,0,1,139.53,75c-.61-1.48-2.62-7.46.57-15.56,0,0,4.94-1.58,16.17,6a55.71,55.71,0,0,1,29.44,0c11.23-7.61,16.16-6,16.16-6,3.2,8.1,1.18,14.08.58,15.56a22.68,22.68,0,0,1,6,15.78c0,22.59-13.74,27.56-26.84,29,2.11,1.82,4,5.41,4,10.89,0,7.86-.07,14.2-.07,16.13,0,1.57,1.06,3.4,4,2.83A58.8,58.8,0,0,0,171,35.09Z"/></g></g></svg>