<svg xmlns="http://www.w3.org/2000/svg" width="42" height="42" viewBox="0 0 42 42"><defs><style>.a{fill:#6463f6;}.b{fill:#fff;}</style></defs><rect class="a" width="42" height="42" rx="5" transform="translate(0 0)"/><g transform="translate(-64.36 79.185)"><g transform="translate(72 -70)"><path class="b" d="M13.361,15.865a4.175,4.175,0,1,1,4.175-4.175A4.175,4.175,0,0,1,13.361,15.865ZM26.283,10.3a2.4,2.4,0,0,1,.438,1.388,2.248,2.248,0,0,1-.438,1.388l-4.016,7.307a1.061,1.061,0,0,1-1.825.073L18.325,17.17a1.123,1.123,0,0,1,.146-1.242,6.569,6.569,0,0,0,1.461-5.261,6.754,6.754,0,0,0-5.476-5.553,6.664,6.664,0,0,0-7.593,8.11A6.788,6.788,0,0,0,10.878,17.9a6.353,6.353,0,0,0,4.308.292.976.976,0,0,1,1.1.438l1.971,3.142a1.058,1.058,0,0,1-.876,1.607H7.52a2.464,2.464,0,0,1-2.19-1.315L.438,13.079A2.248,2.248,0,0,1,0,11.69,2.406,2.406,0,0,1,.438,10.3L5.329,1.315A2.464,2.464,0,0,1,7.52,0H19.2a2.463,2.463,0,0,1,2.19,1.315Z" transform="translate(0.36 -0.186)"/></g></g></svg>