<svg xmlns="http://www.w3.org/2000/svg" xmlns:xlink="http://www.w3.org/1999/xlink" width="254.415" height="36.404" viewBox="0 0 254.415 36.404"><defs><style>.a{fill:#fff;}.b{fill:#2684ff;}.c{fill:url(#c);}.d{fill:url(#d);}.e{fill:#ff26be;}.f{fill:#2e001f;}.g{fill:#ffd9f2;}.h{filter:url(#a);}</style><filter id="a" x="42.754" y="3.088" width="33.316" height="33.316" filterUnits="userSpaceOnUse"><feOffset dy="3" input="SourceAlpha"/><feGaussianBlur stdDeviation="3" result="b"/><feFlood flood-opacity="0.161"/><feComposite operator="in" in2="b"/><feComposite in="SourceGraphic"/></filter><linearGradient id="c" x1="0.919" y1="0.403" x2="0.283" y2="0.817" gradientUnits="objectBoundingBox"><stop offset="0.18" stop-color="#0052cc"/><stop offset="1" stop-color="#2684ff"/></linearGradient><linearGradient id="d" x1="0.087" y1="0.592" x2="0.722" y2="0.18" xlink:href="#c"/></defs><g class="h" transform="matrix(1, 0, 0, 1, 0, 0)"><path class="a" d="M9.177,39.96a.163.163,0,0,0-.187.182v6.144H2.938c-.125,0-.218.061-.218.182v2.21c0,.182.094.242.25.242H8.99v6.175c0,.121.031.182.187.182h2.4c.156,0,.218-.03.218-.182V48.919h6.02c.156,0,.218-.061.218-.242V46.528c0-.182-.031-.242-.187-.242H11.8V40.2c0-.182-.062-.242-.187-.242Z" transform="translate(49.03 -30.87)"/></g><g transform="translate(79.525 5.412)"><g transform="translate(27.602 1.28)"><path class="a" d="M97.262,9h2.373V21.046c0,3.191-1.4,5.394-4.668,5.394a8.432,8.432,0,0,1-2.847-.449V23.682a6.649,6.649,0,0,0,2.451.449c2,0,2.7-1.2,2.7-2.927Z" transform="translate(-92.12 -7.583)"/><path class="a" d="M127.923,5.9a1.48,1.48,0,0,1,1.582,1.582,1.582,1.582,0,1,1-3.164,0A1.48,1.48,0,0,1,127.923,5.9Zm-1.16,5.064h2.268V24.149h-2.268Z" transform="translate(-116.085 -5.41)"/><path class="a" d="M146.76,22.33h2.214V24.65a4.362,4.362,0,0,1,4.668-2.5v2.214c-2.9-.3-4.668.581-4.668,3.374v7.791H146.76Z" transform="translate(-130.388 -16.778)"/><path class="a" d="M182.449,32.995a4.645,4.645,0,0,1-4.456,2.637c-3.506,0-5.274-2.978-5.274-6.856,0-3.719,1.846-6.856,5.537-6.856a4.327,4.327,0,0,1,4.195,2.583V22.184h2.268V35.368h-2.268Zm-3.85.527c2.032,0,3.85-1.291,3.85-4.219V28.236c0-2.927-1.66-4.219-3.6-4.219-2.559,0-3.877,1.687-3.877,4.746.012,3.176,1.276,4.758,3.626,4.758Z" transform="translate(-148.569 -16.631)"/><path class="a" d="M242.94,25.96a12.129,12.129,0,0,1-6.25-1.345V22.19a14.766,14.766,0,0,0,6.379,1.45c2.61,0,3.6-1.028,3.6-2.559s-.95-2.346-4.246-3.137c-3.9-.95-5.642-2.3-5.642-5.142,0-2.7,2.056-4.692,6.092-4.692a10.324,10.324,0,0,1,5.3,1.264v2.373a10.643,10.643,0,0,0-5.393-1.318c-2.268,0-3.614.791-3.614,2.373,0,1.423,1.109,2.136,4.165,2.9,3.665.923,5.723,2.1,5.723,5.22C249.032,23.928,247.24,25.96,242.94,25.96Z" transform="translate(-193.371 -6.959)"/><path class="a" d="M284.57,28.749c0-3.955,2.319-6.829,6.274-6.829s6.224,2.874,6.224,6.829-2.3,6.892-6.224,6.892S284.57,32.7,284.57,28.749Zm2.214,0c0,2.5,1.241,4.773,4.06,4.773s4.009-2.268,4.009-4.773-1.214-4.707-4.009-4.707-4.048,2.2-4.048,4.707Z" transform="translate(-226.904 -16.631)"/><path class="a" d="M335.36,9.822h3.4v2.1h-3.4V23.006h-2.214V11.92H331v-2.1h2.136V8.384c0-2.451,1.372-4.114,4.195-4.114a5.451,5.451,0,0,1,1.528.21v2.1a7.491,7.491,0,0,0-1.423-.132,1.879,1.879,0,0,0-2.1,2Z" transform="translate(-259.422 -4.27)"/><path class="a" d="M367.445,27.235a7.192,7.192,0,0,0,1.423-.186v2.187a5.439,5.439,0,0,1-1.528.21c-2.823,0-4.195-1.66-4.195-4.114V18.375H361v-2.1h2.136V13.47h2.214v2.8h3.506v2.1h-3.506v6.922A1.856,1.856,0,0,0,367.445,27.235Z" transform="translate(-280.433 -10.713)"/><path class="a" d="M389.38,22.8h2.505l3.8,11.18,3.847-11.18h2.163l3.85,11.18,3.8-11.18h2.505L407,35.984h-2.9L401.827,29.6l-1.2-4.06-1.2,4.06-2.3,6.379h-2.9Z" transform="translate(-300.309 -17.248)"/><path class="a" d="M476.189,32.995a4.645,4.645,0,0,1-4.456,2.637c-3.506,0-5.274-2.978-5.274-6.856,0-3.719,1.846-6.856,5.537-6.856a4.327,4.327,0,0,1,4.195,2.583V22.184h2.268V35.368h-2.268Zm-3.85.527c2.032,0,3.85-1.291,3.85-4.219V28.236c0-2.927-1.66-4.219-3.6-4.219-2.547.024-3.874,1.7-3.874,4.758,0,3.164,1.273,4.746,3.623,4.746Z" transform="translate(-354.293 -16.631)"/><path class="a" d="M517.94,22.33h2.214V24.65a4.362,4.362,0,0,1,4.668-2.5v2.214c-2.9-.3-4.668.581-4.668,3.374v7.791H517.94Z" transform="translate(-390.348 -16.778)"/><path class="a" d="M550.992,35.61c-4.932,0-7.092-2.847-7.092-6.892,0-3.982,2.214-6.829,6.224-6.829,4.06,0,5.693,2.823,5.693,6.829v1.028H546.2c.318,2.241,1.768,3.692,4.878,3.692a11.686,11.686,0,0,0,4.009-.713v2.1A9.384,9.384,0,0,1,550.992,35.61Zm-4.824-7.791h7.35c-.132-2.451-1.24-3.85-3.506-3.85-2.394-.012-3.608,1.549-3.844,3.835Z" transform="translate(-408.529 -16.61)"/></g><path class="b" d="M21.7,10.715,11.927.947,10.981,0h0L3.627,7.353h0L.266,10.715a.9.9,0,0,0,0,1.27L6.983,18.7l4,4,7.353-7.353.114-.114L21.7,11.986a.9.9,0,0,0,0-1.27ZM10.981,14.706,7.625,11.35l3.356-3.356,3.356,3.356Z" transform="translate(-0.003)"/><path class="c" d="M19.418,8.057A5.651,5.651,0,0,1,19.394.09L12.05,7.431l4,4Z" transform="translate(-8.44 -0.064)"/><path class="d" d="M40,37.85,36.64,41.215a5.651,5.651,0,0,1,0,7.994h0L44,41.847Z" transform="translate(-25.662 -26.508)"/></g><path class="e" d="M29.625,35.1H6.375A6.375,6.375,0,0,1,0,28.725V6.375A6.375,6.375,0,0,1,6.375,0h23.25A6.375,6.375,0,0,1,36,6.375v22.35A6.375,6.375,0,0,1,29.625,35.1Z" transform="translate(0 0)"/><path class="f" d="M37.523,42.066H15.444A5.445,5.445,0,0,1,10,36.623V15.444A5.445,5.445,0,0,1,15.444,10H37.521a5.445,5.445,0,0,1,5.445,5.444V36.621A5.445,5.445,0,0,1,37.523,42.066Z" transform="translate(-8.483 -8.483)"/><g transform="translate(6.595 8.466)"><path class="g" d="M52.36,64.968l4.248,8.156c.073.121.024.244-.1.244H53.874a.3.3,0,0,1-.317-.2c-.977-2-1.954-4-2.979-6.153h-.024c-.9,2.026-1.905,4.176-2.882,6.178a.287.287,0,0,1-.268.171H44.889c-.147,0-.171-.121-.1-.22l4.151-7.911-4-8.016a.127.127,0,0,1,.1-.22h2.613c.147,0,.22.024.268.171.953,2,1.929,4.06,2.833,6.087h.024c.88-2,1.857-4.085,2.783-6.062.073-.121.121-.2.268-.2h2.442c.123,0,.171.1.1.22Z" transform="translate(-44.751 -57)"/><path class="g" d="M127.82,67.434c0-3.54,2.345-6.3,6.081-6.3.317,0,.488,0,.781.024v-4.01a.142.142,0,0,1,.147-.147h2.393c.123,0,.147.049.147.121V71.047a11.246,11.246,0,0,0,.073,1.489c0,.1-.024.121-.121.171a8.991,8.991,0,0,1-3.883.88C130.163,73.587,127.82,71.561,127.82,67.434Zm6.862-3.883a2.207,2.207,0,0,0-.88-.147c-1.905,0-3.247,1.465-3.247,3.907,0,2.783,1.368,3.907,3.077,3.907a2.851,2.851,0,0,0,1.05-.171Z" transform="translate(-115.22 -57)"/></g></svg>