<svg xmlns="http://www.w3.org/2000/svg" xmlns:xlink="http://www.w3.org/1999/xlink" width="42" height="42" viewBox="0 0 42 42"><defs><style>.a{fill:#fff;}.b{fill:#2684ff;}.c{fill:url(#a);}.d{fill:url(#b);}</style><linearGradient id="a" x1="0.919" y1="0.403" x2="0.283" y2="0.817" gradientUnits="objectBoundingBox"><stop offset="0.18" stop-color="#0052cc"/><stop offset="1" stop-color="#2684ff"/></linearGradient><linearGradient id="b" x1="0.087" y1="0.592" x2="0.722" y2="0.18" xlink:href="#a"/></defs><rect class="a" width="42" height="42" rx="5" transform="translate(0 0)"/><g transform="translate(5 4)"><path class="b" d="M31.655,15.635,17.4,1.382,16.021,0h0L5.292,10.729h0L.386,15.635a1.312,1.312,0,0,0,0,1.854l9.8,9.8,5.832,5.832L26.75,22.394l.166-.166,4.739-4.739a1.312,1.312,0,0,0,0-1.854ZM16.021,21.458l-4.9-4.9,4.9-4.9,4.9,4.9Z" transform="translate(-0.003)"/><path class="c" d="M22.8,11.715A8.246,8.246,0,0,1,22.766.09L12.05,10.8l5.832,5.832Z" transform="translate(-6.783 -0.051)"/><path class="d" d="M41.55,37.85l-4.91,4.91a8.246,8.246,0,0,1,0,11.665h0L47.382,43.682Z" transform="translate(-20.622 -21.301)"/></g></svg>