<svg xmlns="http://www.w3.org/2000/svg" xmlns:xlink="http://www.w3.org/1999/xlink" width="552.878" height="355.088" viewBox="0 0 552.878 355.088"><defs><style>.a{fill:#835373;}.b,.h,.j,.k,.o{fill:none;stroke-miterlimit:10;}.b,.j,.k{stroke:#835373;}.b{stroke-width:2.06px;}.c{fill:#ff9522;}.d{fill:#ff85d6;}.e{fill:#ff554d;}.f{fill:#ff40bf;}.g{fill:#67184d;}.h,.o{stroke:#ff40bf;}.h,.k{stroke-linecap:round;}.h{stroke-width:2.35px;}.i{fill:#ffa8e2;}.j,.k{stroke-width:1.87px;}.l{fill:#8d2269;}.m{fill:url(#a);}.n{fill:#fff;}.o{stroke-width:2.13px;}</style><linearGradient id="a" x1="2.103" y1="-0.849" x2="1.402" y2="1.643" gradientUnits="objectBoundingBox"><stop offset="0" stop-color="#ff51c5" stop-opacity="0"/><stop offset="0.12" stop-color="#ff51c5" stop-opacity="0.02"/><stop offset="0.25" stop-color="#ff51c5" stop-opacity="0.059"/><stop offset="0.37" stop-color="#ff51c5" stop-opacity="0.141"/><stop offset="0.5" stop-color="#ff51c5" stop-opacity="0.259"/><stop offset="0.63" stop-color="#ff51c5" stop-opacity="0.4"/><stop offset="0.76" stop-color="#ff51c5" stop-opacity="0.58"/><stop offset="0.88" stop-color="#ff51c5" stop-opacity="0.78"/><stop offset="1" stop-color="#ff51c5"/></linearGradient></defs><g transform="translate(9998.992 15159.117)"><path class="a" d="M930.746,294.238v97.318h-97.31V294.238h97.31m1.757-1.748H831.68V393.3H932.5Z" transform="translate(-10626.188 -15236.167)"/><line class="b" x2="38.247" transform="translate(-9763.179 -14912.26)"/><line class="b" y1="38.255" x2="38.247" transform="translate(-9763.179 -14912.347)"/><circle class="c" cx="9.564" cy="9.564" r="9.564" transform="translate(-9772.674 -14883.707)"/><circle class="d" cx="9.564" cy="9.564" r="9.564" transform="translate(-9772.674 -14921.832)"/><circle class="e" cx="9.564" cy="9.564" r="9.564" transform="translate(-9734.542 -14883.707)"/><circle class="f" cx="9.564" cy="9.564" r="9.564" transform="translate(-9734.542 -14921.832)"/><rect class="e" width="102.571" height="100.815" transform="translate(-9896.752 -14943.677)"/><path class="a" d="M690.763,294.238v97.318H591.688V294.238h99.075m1.748-1.748H589.94V393.3H692.511Z" transform="translate(-10588.932 -15236.167)"/><g transform="translate(-9875.879 -14915.361)"><path class="g" d="M796.32,337.1v36.4a2.546,2.546,0,0,1-2.546,2.546H737.936a2.546,2.546,0,0,1-2.546-2.546V337.09a2.546,2.546,0,0,1,2.546-2.588h7.527v-7.417a1.264,1.264,0,0,1,1.264-1.264H758.82a1.264,1.264,0,0,1,1.256,1.264V334.5h11.21v-7.417a1.264,1.264,0,0,1,1.264-1.264h12.067a1.264,1.264,0,0,1,1.264,1.264V334.5h7.858a2.546,2.546,0,0,1,2.58,2.6Z" transform="translate(-735.39 -325.82)"/></g><line class="h" y2="74.066" transform="translate(-9947.699 -14930.279)"/><line class="h" x1="52.368" y2="52.376" transform="translate(-9973.889 -14919.417)"/><line class="h" x1="74.066" transform="translate(-9984.734 -14893.194)"/><line class="h" x1="52.368" y1="52.376" transform="translate(-9973.889 -14919.417)"/><path class="a" d="M907.634,431.347a1.035,1.035,0,0,1,1.035,1.035v18.3a1.035,1.035,0,0,1-1.035,1.035h-77.9a1.035,1.035,0,0,1-1.035-1.035v-18.3a1.035,1.035,0,0,1,1.035-1.035h77.9m0-1.587h-77.9a2.622,2.622,0,0,0-2.622,2.622v18.3a2.622,2.622,0,0,0,2.622,2.622h77.9a2.622,2.622,0,0,0,2.622-2.622v-18.3a2.622,2.622,0,0,0-2.622-2.622Z" transform="translate(-10625.444 -15257.338)"/><circle class="i" cx="8.164" cy="8.164" r="8.164" transform="translate(-9793.499 -14823.972)"/><path class="a" d="M1010.79,431.347a1.027,1.027,0,0,1,1.027,1.035v18.3a1.035,1.035,0,0,1-1.027,1.035H932.862a1.035,1.035,0,0,1-1.035-1.035v-18.3a1.035,1.035,0,0,1,1.035-1.035h77.928m0-1.587H932.862a2.622,2.622,0,0,0-2.622,2.622v18.3a2.622,2.622,0,0,0,2.622,2.622h77.928a2.622,2.622,0,0,0,2.622-2.622v-18.3a2.622,2.622,0,0,0-2.622-2.622Z" transform="translate(-10641.335 -15257.338)"/><circle class="e" cx="8.164" cy="8.164" r="8.164" transform="translate(-9706.242 -14823.972)"/><rect class="j" width="79.336" height="73.074" rx="4.97" transform="translate(-9538.842 -14939.084)"/><rect class="f" width="35.608" height="5.507" rx="2.754" transform="translate(-9516.981 -14927.834)"/><line class="k" x2="60.65" transform="translate(-9833.156 -15012.561)"/><circle class="e" cx="6.305" cy="6.305" r="6.305" transform="translate(-9825.703 -15018.861)"/><line class="k" x2="60.65" transform="translate(-9833.156 -14998.587)"/><line class="k" x2="60.65" transform="translate(-9833.156 -14984.622)"/><circle class="e" cx="6.305" cy="6.305" r="6.305" transform="translate(-9791.148 -15004.89)"/><circle class="e" cx="6.305" cy="6.305" r="6.305" transform="translate(-9825.703 -14990.926)"/><path class="f" d="M1045.049,179.287v87.457l-75.755,43.737L893.53,266.745V179.287l75.764-43.737Z" transform="translate(-10635.854 -15211.98)"/><path class="l" d="M1058.565,282.349,982.81,326.086V238.62Z" transform="translate(-10649.415 -15227.786)"/><path class="c" d="M982.81,230.819l75.755-43.729v87.457Z" transform="translate(-10649.415 -15219.808)"/><rect class="j" width="141.556" height="43.635" rx="21.818" transform="translate(-9588.604 -15073.977)"/><circle class="f" cx="18.585" cy="18.585" r="18.585" transform="translate(-9584.87 -15070.748)"/><path class="l" d="M902.261,98.675A61.244,61.244,0,0,1,875.25,149.5h0a61.295,61.295,0,1,1,27.02-50.823Z" transform="translate(-10618.222 -15196.498)"/><path class="c" d="M884.7,99.689l-4.328-.093a2.546,2.546,0,0,0-2.588,2.495l-.17,12.288a8.138,8.138,0,0,1-8.3,8.019l-8.41-.17a7.349,7.349,0,0,0-7.493,7.2l-.127,5.94a16.794,16.794,0,0,0,16.4,17.133l10.4.331a61.286,61.286,0,0,1-68.194.221,10.463,10.463,0,0,0,8.613-10.141l.925-57.459a26.6,26.6,0,0,1,27.155-26.061l3.547.059a32.5,32.5,0,0,1,30.3,22.7l4.548,14.426a2.376,2.376,0,0,1-2.283,3.114Z" transform="translate(-10623.083 -15199.828)"/><path class="a" d="M1033.489,68.307a26.527,26.527,0,0,1,26.443,24.907h-52.894a26.527,26.527,0,0,1,26.451-24.907m0-1.587A28.089,28.089,0,0,0,1005.4,94.8h56.169a28.089,28.089,0,0,0-28.08-28.08Z" transform="translate(-10652.845 -15200.939)"/><path class="a" d="M1035.135,79.177a17.3,17.3,0,0,1,17.2,15.682h-34.411a17.3,17.3,0,0,1,17.21-15.682m0-1.587a18.856,18.856,0,0,0-18.865,18.856h37.721A18.856,18.856,0,0,0,1035.135,77.59Z" transform="translate(-10654.472 -15202.585)"/><path class="a" d="M1036.866,90.6a7.586,7.586,0,0,1,7.4,5.94h-14.808a7.638,7.638,0,0,1,7.408-5.94m0-1.587a9.157,9.157,0,0,0-9.156,9.156h18.313A9.165,9.165,0,0,0,1036.866,89Z" transform="translate(-10656.768 -15204.313)"/><path class="g" d="M1005.673,99.81H1061.6a28,28,0,1,1-55.932,0Z" transform="translate(-10652.881 -15206.245)"/><path class="m" d="M1005.673,99.81H1061.6a28,28,0,1,1-55.932,0Z" transform="translate(-10652.881 -15206.245)"/><g transform="translate(-9615.251 -14992.765)"><path class="n" d="M1112.055,294h12.22c7.213,0,17.125-4.455,17.125-17.193,0-10.183-10.243-17.473-18.364-18.669a16.389,16.389,0,0,0,.322-3.089c.059-11.388-9.038-20.146-20.842-20.723-15.445-.747-21.5,11.948-22.853,16.972-15.114-2.987-25.017,6.254-23.574,19.985-.246,0-.492-.059-.764-.059a11.544,11.544,0,0,0-11.346,11.583c0,4.693,3.148,11.236,12.356,11.244h55.719Z" transform="translate(-1043.98 -234.293)"/></g><path class="c" d="M1020.86,362.421l2.546-.059a1.511,1.511,0,0,1,1.536,1.485l.1,7.307a4.828,4.828,0,0,0,4.93,4.761l5-.1a4.37,4.37,0,0,1,4.455,4.243l.076,3.539a9.988,9.988,0,0,1-9.768,10.183l-6.178.2a36.439,36.439,0,0,0,40.521.136,6.22,6.22,0,0,1-5.092-6.025l-.552-34.156a15.81,15.81,0,0,0-16.124-15.487H1040.2a19.3,19.3,0,0,0-18,13.484l-2.707,8.588a1.417,1.417,0,0,0,1.366,1.909Z" transform="translate(-10654.973 -15243.163)"/><path class="o" d="M1005.4,361.822a36.4,36.4,0,0,0,16.056,30.2h0a36.422,36.422,0,1,0-16.064-30.2Z" transform="translate(-10653.389 -15241.178)"/></g></svg>