<svg xmlns="http://www.w3.org/2000/svg" xmlns:xlink="http://www.w3.org/1999/xlink" width="336.411" height="179.965" viewBox="0 0 336.411 179.965"><defs><style>.a{fill:url(#a);}.b{opacity:0.5;}.c{fill:#307264;stroke:#307264;}.c,.e,.g{stroke-linecap:round;stroke-linejoin:round;stroke-width:7px;}.d{fill:#1c1c1c;}.e,.g,.i{fill:none;}.e{stroke:#1c1c1c;}.f{fill:#0ebc97;}.g{stroke:#10c5a3;}.h{stroke:none;}.j{filter:url(#d);}.k{filter:url(#b);}</style><linearGradient id="a" x1="0.5" x2="0.5" y2="1" gradientUnits="objectBoundingBox"><stop offset="0" stop-color="#0ebc97"/><stop offset="1" stop-color="#13d1b1"/></linearGradient><filter id="b" x="112.838" y="33.014" width="117.892" height="128.117" filterUnits="userSpaceOnUse"><feOffset dy="3" input="SourceAlpha"/><feGaussianBlur stdDeviation="3" result="c"/><feFlood flood-opacity="0.161"/><feComposite operator="in" in2="c"/><feComposite in="SourceGraphic"/></filter><filter id="d" x="105.681" y="24.833" width="117.892" height="127.095" filterUnits="userSpaceOnUse"><feOffset dy="3" input="SourceAlpha"/><feGaussianBlur stdDeviation="3" result="e"/><feFlood flood-opacity="0.161"/><feComposite operator="in" in2="e"/><feComposite in="SourceGraphic"/></filter></defs><rect class="a" width="336.411" height="179.965" rx="4" transform="translate(0 0)"/><g transform="translate(121.681 37.833)"><g class="b" transform="translate(7.158 8.18)"><g class="k" transform="matrix(1, 0, 0, 1, -128.84, -46.01)"><g class="c" transform="translate(128.84 46.01)"><rect class="h" width="85.892" height="96.118" rx="10"/><rect class="i" x="-3.5" y="-3.5" width="92.892" height="103.118" rx="13.5"/></g></g><g transform="translate(11.36 16.1)"><path class="d" d="M43.4,10H70.112v5.343H43.4Zm0,21.371H70.112v5.343H43.4ZM6,42.056H38.056V47.4H6ZM43.4,20.685H70.112v5.343H43.4Zm0,21.371H70.112V47.4H43.4ZM6,10H38.056V36.713H6Z" transform="translate(-6 -10)"/></g><path class="e" d="M-9302-11645.816c3.809,3.634,3.818,3.716,3.818,3.716l10.777-10.492" transform="translate(9341.149 11722.732)"/></g><g transform="translate(0 0)"><g class="j" transform="matrix(1, 0, 0, 1, -121.68, -37.83)"><g class="c" transform="translate(121.68 37.83)"><rect class="h" width="85.892" height="95.095" rx="10"/><rect class="i" x="-3.5" y="-3.5" width="92.892" height="102.095" rx="13.5"/></g></g><g transform="translate(10.419 15.559)"><path class="f" d="M43.4,10H70.112v5.343H43.4Zm0,21.371H70.112v5.343H43.4ZM6,42.056H38.056V47.4H6ZM43.4,20.685H70.112v5.343H43.4Zm0,21.371H70.112V47.4H43.4ZM6,10H38.056V36.713H6Z" transform="translate(-6 -10)"/></g><path class="g" d="M-9302-11645.816c3.809,3.634,3.818,3.716,3.818,3.716l10.777-10.492" transform="translate(9340.209 11722.191)"/></g></g></svg>