<svg xmlns="http://www.w3.org/2000/svg" xmlns:xlink="http://www.w3.org/1999/xlink" width="672" height="358" viewBox="0 0 336 179"><defs><style>.a{fill:url(#a);}.b{clip-path:url(#b);}.c{fill:#f4f4f4;}.d{fill:none;stroke:#a3a3a3;stroke-linecap:round;stroke-linejoin:round;}.e{fill:#7a1d5b;}.f{fill:#ff40bf;}.g{fill:#d1d3d4;}</style><linearGradient id="a" x1="0.5" x2="0.5" y2="1" gradientUnits="objectBoundingBox"><stop offset="0" stop-color="#0ebc97"/><stop offset="1" stop-color="#13d1b1"/></linearGradient><clipPath id="b"><rect class="a" width="336" height="179" rx="4" transform="translate(473 3024)"/></clipPath></defs><g class="b" transform="translate(-473 -3024)"><g transform="translate(473 3024)"><rect class="c" width="336" height="179"/><path class="d" d="M80.75,143.93V39.63a4.56,4.56,0,0,1,4.55-4.56H242.09a4.56,4.56,0,0,1,4.56,4.56v82.75"/><rect class="e" width="62.51" height="28.85" transform="translate(93.48 50.95)"/><rect class="f" width="34.46" height="39.84" transform="translate(200.09 94.85)"/><rect class="g" width="72.26" height="6.89" transform="translate(161.47 50.95)"/><rect class="g" width="72.26" height="6.89" transform="translate(161.47 61.93)"/><rect class="g" width="72.26" height="6.89" transform="translate(161.47 72.91)"/><rect class="g" width="140.25" height="6.89" transform="translate(93.48 83.89)"/><rect class="g" width="101.2" height="6.89" transform="translate(93.48 94.86)"/><rect class="g" width="101.2" height="6.89" transform="translate(93.48 105.84)"/><rect class="g" width="101.2" height="6.89" transform="translate(93.48 116.82)"/><rect class="g" width="101.2" height="6.89" transform="translate(93.48 127.26)"/><path class="d" d="M246.65,65.92h10a4.56,4.56,0,0,1,4.56,4.56v70.3"/></g></g></svg>