<svg xmlns="http://www.w3.org/2000/svg" width="124.657" height="104" viewBox="0 0 124.657 104"><defs><style>.a{fill:none;stroke:#ff40bf;stroke-linecap:round;stroke-linejoin:round;}.b{fill:#e0e0e0;}.c{fill:#ff26be;}.d{fill:#2e001f;}.e{fill:#ffd9f2;}</style></defs><g transform="translate(0.623)"><g transform="translate(0 40.009)"><path class="a" d="M74.836,119.5l4.272-4.636L74.48,110.59" transform="translate(-42.343 -75.273)"/><path class="a" d="M70.691,106.512a32.452,32.452,0,0,1-35.1-39.572" transform="translate(-34.76 -66.94)"/></g><g transform="translate(6.797 0)"><path class="b" d="M107.6,29.392V67.839a2.727,2.727,0,0,1-2.719,2.735H45.895a2.735,2.735,0,0,1-2.735-2.735V29.392a2.727,2.727,0,0,1,2.735-2.727h7.953v-7.84a1.327,1.327,0,0,1,1.319-1.335H67.95a1.327,1.327,0,0,1,1.327,1.335v7.84H81.122v-7.84a1.335,1.335,0,0,1,1.343-1.335H95.233a1.335,1.335,0,0,1,1.343,1.335v7.84h8.3A2.727,2.727,0,0,1,107.6,29.392Z" transform="translate(-43.16 -17.49)"/></g><rect class="c" width="79.436" height="77.454" rx="17.39" transform="translate(44.597 26.546)"/><rect class="d" width="72.818" height="70.836" rx="14.86" transform="translate(47.906 29.855)"/><path class="e" d="M124.8,91l9.272,17.8c.162.267.057.534-.21.534h-5.753a.647.647,0,0,1-.7-.429c-2.136-4.369-4.264-8.738-6.473-13.423h-.049c-1.974,4.418-4.159,9.11-6.287,13.479a.631.631,0,0,1-.591.372h-5.486c-.324,0-.372-.267-.218-.477l9.062-17.266L108.634,74.1a.283.283,0,0,1,.21-.485h5.664c.324,0,.477.057.583.38,2.079,4.369,4.215,8.9,6.181,13.277h.057c1.918-4.369,4.045-8.9,6.076-13.229.162-.267.267-.429.583-.429h5.332c.267,0,.372.218.21.485Z" transform="translate(-48.785 -28.204)"/><path class="e" d="M142.17,96.384c0-7.727,5.113-13.754,13.269-13.754a16.639,16.639,0,0,1,1.707.057V73.924a.307.307,0,0,1,.316-.324h5.227c.267,0,.316.113.316.267v30.4a24.12,24.12,0,0,0,.162,3.236c0,.21-.057.267-.267.372a19.548,19.548,0,0,1-8.471,1.918C147.283,109.807,142.17,105.389,142.17,96.384ZM157.146,87.9a4.855,4.855,0,0,0-1.918-.316c-4.159,0-7.088,3.236-7.088,8.528,0,6.068,2.977,8.52,6.707,8.52a6.287,6.287,0,0,0,2.3-.372Z" transform="translate(-55.266 -28.202)"/></g></svg>