<svg xmlns="http://www.w3.org/2000/svg" width="41.658" height="41.658" viewBox="0 0 41.658 41.658"><defs><style>.a{fill:#fff;}.b{fill:#ff4641;}.c{fill:#cae2e2;}.d{fill:#232d41;}</style></defs><rect class="a" width="41.658" height="41.658" rx="5" transform="translate(0 0)"/><g transform="translate(5.514 7.351)"><path class="b" d="M138.537,230.2A15.686,15.686,0,0,1,122.9,214.7a.19.19,0,0,1,.2-.2h3.751v.2a11.676,11.676,0,0,0,23.35,0v-.2h3.751a.2.2,0,0,1,.2.2A15.67,15.67,0,0,1,138.537,230.2Z" transform="translate(-122.9 -202.89)"/><path class="c" d="M149.1,148.634a11.655,11.655,0,1,1,23.31,0Z" transform="translate(-144.938 -136.9)"/><path class="d" d="M172.51,214.4a11.655,11.655,0,1,1-23.31,0Z" transform="translate(-145.218 -202.805)"/></g></svg>