<svg xmlns="http://www.w3.org/2000/svg" height="120" id="S_Illu_UserCommunity_180x120" viewBox="0 0 180 120" width="180">
  <defs>
    <style>
	.cls-1 {
        fill: #ff00b8;
      }
	.cls-2 {
        fill: #b3b3b3;
      }
	.cls-3 {
        fill: #b6b6b6;
      }</style>
  </defs>
  <title>S_Illu_UserCommunity_180x120</title>
  <path class="cls-1" d="M130.072,95.75a37.564,37.564,0,1,1,37.565-37.563A37.605,37.605,0,0,1,130.072,95.75Zm0-72.128a34.564,34.564,0,1,0,34.565,34.565A34.6,34.6,0,0,0,130.072,23.622Z" />
  <path class="cls-2" d="M67.072,44.686a18.5,18.5,0,1,1,18.5-18.5A18.521,18.521,0,0,1,67.072,44.686Zm0-34.5a16,16,0,1,0,16,16A16.018,16.018,0,0,0,67.072,10.186Z" />
  <path class="cls-1" d="M124.2,70.783a10.578,10.578,0,0,1-2.334-.267c-2.708-.614-8.643-5.487-8.643-15.971V49.351a1,1,0,0,1,2,0v5.194c0,9.359,5.269,13.608,7.085,14.019,5.514,1.258,8.866-3.476,8.9-3.524a1,1,0,0,1,1.645,1.139C132.7,66.391,129.593,70.782,124.2,70.783Z" />
  <path class="cls-1" d="M152.822,80.955a1,1,0,0,1-.707-.293c-4.82-4.82-3.774-8.749-2.762-12.55.715-2.688,1.391-5.227.131-8.286a4.451,4.451,0,0,0-1.939-2.515,10.791,10.791,0,0,1-5.206-9.8,23.959,23.959,0,0,0-.205-5.453C141.616,39.391,139.048,30.7,127.7,30.7c-8.765,0-13.079,7.285-13.645,8.315-.087.707-.236,4.843,7.376,8.9a30.4,30.4,0,0,0,9.38,2.966c.62-1.415,2.049-4.019,4.19-4.019a3.614,3.614,0,0,1,2.7,1,4.611,4.611,0,0,1,1.069,3.481c-.066,3-2.118,4.821-3.616,6.149-.3.269-.586.519-.827.76a1,1,0,0,1-1.414-1.414c.268-.268.58-.546.915-.842,1.358-1.2,2.9-2.567,2.942-4.7a2.857,2.857,0,0,0-.5-2.038,1.7,1.7,0,0,0-1.267-.4c-.895,0-2.089,2-2.608,3.446a.991.991,0,0,1-1.035.658,32.225,32.225,0,0,1-10.869-3.286c-9.654-5.148-8.424-10.974-8.366-11.22a1.041,1.041,0,0,1,.079-.221c.2-.389,4.892-9.54,15.5-9.54,12.875,0,15.8,9.932,16.394,12.976a25.772,25.772,0,0,1,.24,5.941,8.79,8.79,0,0,0,4.246,7.986,6.452,6.452,0,0,1,2.751,3.463c1.517,3.683.686,6.807-.049,9.563-.945,3.55-1.761,6.616,2.244,10.621a1,1,0,0,1-.707,1.707Z" />
  <path class="cls-1" d="M148.79,84.5a1,1,0,0,1-.677-.264c-2.665-2.45-5.339-4.881-7.611-6.946l-1.432-1.3c-1.078-.98-2.674-3.248-2.677-5V63.612a1,1,0,1,1,2,0v7.37a6.788,6.788,0,0,0,2.023,3.526l1.432,1.3c2.274,2.067,4.951,4.5,7.619,6.953a1,1,0,0,1-.677,1.736Z" />
  <path class="cls-1" d="M110.378,84.5a1,1,0,0,1-.78-1.625c3.059-3.824,7.826-5.631,11.306-6.949.408-.155.8-.3,1.161-.445a1,1,0,0,1,1.323.643,5.034,5.034,0,0,0,4.1,3.284c3.047.512,6.41-.869,7.827-3.208a1,1,0,0,1,1.711,1.037c-1.846,3.049-5.991,4.8-9.868,4.144a7.243,7.243,0,0,1-5.287-3.685l-.262.1c-3.264,1.237-7.736,2.932-10.453,6.329A1,1,0,0,1,110.378,84.5Z" />
  <path class="cls-2" d="M72.875,75.75a1,1,0,0,1-.32-1.947l1.894-.64a1,1,0,0,1,.641,1.9l-1.9.639A1,1,0,0,1,72.875,75.75Zm5.685-1.92a1,1,0,0,1-.321-1.947l1.895-.64a1,1,0,0,1,.64,1.9l-1.894.639A1,1,0,0,1,78.56,73.83Zm5.684-1.92a1,1,0,0,1-.32-1.947l1.894-.64a1,1,0,0,1,.641,1.9l-1.9.639A.967.967,0,0,1,84.244,71.91Zm5.685-1.92a1,1,0,0,1-.321-1.947l1.822-.615a1,1,0,0,1,.64,1.894l-1.821.616A.992.992,0,0,1,89.929,69.99Z" />
  <path class="cls-2" d="M98.446,36.152a.98.98,0,0,1-.24-.075l-1.19-.545a1,1,0,1,1,.833-1.818l1.191.545a1,1,0,0,1-.594,1.893Zm-4.827-2.21a.967.967,0,0,1-.24-.075l-1.818-.832a1,1,0,0,1,.833-1.819l1.818.833a1,1,0,0,1-.593,1.893Zm-5.456-2.5a1.025,1.025,0,0,1-.24-.075l-1.818-.832a1,1,0,0,1,.833-1.819l1.818.832a1,1,0,0,1-.593,1.894Z" />
  <path class="cls-2" d="M53.166,51.333a1,1,0,0,1-.811-1.584l1.169-1.623A1,1,0,1,1,55.147,49.3l-1.168,1.623A1,1,0,0,1,53.166,51.333Zm3.507-4.868a1,1,0,0,1-.811-1.585l1.17-1.622a1,1,0,0,1,1.623,1.17l-1.17,1.622A1,1,0,0,1,56.673,46.465Z" />
  <path class="cls-2" d="M40.737,111.062A30.41,30.41,0,1,1,71.146,80.651,30.445,30.445,0,0,1,40.737,111.062Zm0-57.82A27.41,27.41,0,1,0,68.146,80.651,27.441,27.441,0,0,0,40.737,53.242Z" />
  <path class="cls-2" d="M46.167,94.544a13.412,13.412,0,0,1-3.088-.381c-4.29-1.016-5.47-1.745-5.792-2.089a1,1,0,0,1,1.4-1.428c.108.075,1.046.669,4.854,1.571,4.047.954,6.258-.375,6.926-1.313,1.1-1.541,1.926-6.4,2.147-10.2.293-5.025-.535-9.26-2.953-15.1-2.835-6.85-10.491-7.365-15.024-5.544-6.275,2.521-8.7,8.086-7.8,12.044a20.048,20.048,0,0,0,1.445,4.81,1.012,1.012,0,0,1-.293,1.368.983.983,0,0,1-1.356-.239c-.171-.238-.8-1.339-1.745-5.495-1.085-4.764,1.7-11.41,9.006-14.344,5.295-2.127,14.259-1.477,17.618,6.635,2.512,6.067,3.41,10.7,3.1,15.984-.019.343-.513,8.431-2.514,11.24C51.186,93.339,49.179,94.544,46.167,94.544Z" />
  <path class="cls-2" d="M33.75,80.883a.994.994,0,0,1-.629-.224c-.476-.386-2.863-2.411-3.081-4.351a7.3,7.3,0,0,1,.638-2.946c.395-1.123.936-2.661.485-3.193a4.381,4.381,0,0,1-.926-4.2,1.886,1.886,0,0,1,1.5-1.278c.159-.019.491-.026.967-.029,2.513-.013,9.188-.049,14.6-3.512a1,1,0,0,1,1.078,1.686c-5.905,3.774-13,3.812-15.671,3.826-.265,0-.471,0-.611.006a2.392,2.392,0,0,0,.582,2.207c1.192,1.407.461,3.482-.126,5.149a6.923,6.923,0,0,0-.536,2.059c.093.835,1.459,2.3,2.353,3.021a1,1,0,0,1-.631,1.777Z" />
  <path class="cls-2" d="M38.776,106.188a1,1,0,0,1-.659-.249l-6.733-5.9a1,1,0,0,1,1.318-1.5l5.95,5.219,2.548-3.157-9.527-3.449a1,1,0,0,1-.379-1.634,5.9,5.9,0,0,0,1.461-4.843l-.386-1.7a1,1,0,1,1,1.949-.445l.388,1.7a7.321,7.321,0,0,1-1.084,5.5L43.2,99.188a1,1,0,0,1,.438,1.569l-4.083,5.058a1,1,0,0,1-.693.369A.825.825,0,0,1,38.776,106.188Z" />
  <path class="cls-2" d="M30.729,87.806a2.947,2.947,0,0,1-.843-.127c-2.242-.659-4.6-3.942-5.051-4.593a5.486,5.486,0,0,1-1.125-4.023,3.074,3.074,0,0,1,1.412-2.017c1.877-1.2,3.571.223,4.807,1.26.317.267.634.535.953.761A1,1,0,0,1,29.726,80.7c-.363-.257-.723-.557-1.084-.861-1.33-1.116-1.9-1.45-2.447-1.1a1.081,1.081,0,0,0-.525.727,3.676,3.676,0,0,0,.81,2.489c1.14,1.649,2.87,3.488,3.97,3.812a.607.607,0,0,0,.523-.019,1.68,1.68,0,0,0,.543-.926,1,1,0,0,1,1.961.4,3.633,3.633,0,0,1-1.472,2.242A2.449,2.449,0,0,1,30.729,87.806Z" />
  <path class="cls-2" d="M23.788,103.492a1,1,0,0,1-.623-1.783c6.021-4.777,6.159-4.823,6.371-4.894a1,1,0,0,1,.8,1.823c-.461.316-3.86,2.995-5.93,4.637A1,1,0,0,1,23.788,103.492Z" />
  <path class="cls-2" d="M61.188,100.282a.977.977,0,0,1-.3-.046l-3.164-.994c-.139-.031-4.933-1.214-7.157-3.528a1,1,0,0,1,1.442-1.387c1.819,1.894,6.207,2.979,6.251,2.989l3.227,1.012a1,1,0,0,1-.3,1.954Z" />
  <path class="cls-2" d="M47.074,106.188h-.012a1,1,0,0,1-.756-.361l-4.215-5.058a1,1,0,0,1,.25-1.5l8.429-5.108a1,1,0,1,1,1.037,1.711l-7.435,4.506,2.721,3.265,5-5.713A1,1,0,1,1,53.6,99.25l-5.768,6.6A1,1,0,0,1,47.074,106.188Z" />
  <path class="cls-3" d="M56.816,37.3a1,1,0,0,1-1-.927c-.014-.2-.039-.984-.039-1.184,0-.7.229-6.827,8.152-7.516l.021-1.636a9.435,9.435,0,0,1-2.237-5.806c0-4.318,2.448-7.09,6.236-7.09,3.754,0,6.179,2.772,6.179,7.062a9.285,9.285,0,0,1-2.1,5.773l-.048,1.62a.08.08,0,0,0,.066.089c3.119.289,7.386,1.26,7.944,6.276a1,1,0,0,1-1.988.221c-.219-1.966-1.124-4.04-6.183-4.51a2.089,2.089,0,0,1-1.839-2.089V26.039a2.1,2.1,0,0,1,.531-1.363,7.244,7.244,0,0,0,1.617-4.482c0-3.206-1.524-5.051-4.179-5.051s-4.236,1.892-4.236,5.062A7.343,7.343,0,0,0,65.443,24.7a2.053,2.053,0,0,1,.511,1.323v1.57a2.064,2.064,0,0,1-1.807,2.073c-6.061.528-6.366,4.7-6.366,5.528,0,.175.021.864.033,1.037a1,1,0,0,1-.923,1.071Q56.854,37.3,56.816,37.3Z" />
  </svg>