<svg xmlns="http://www.w3.org/2000/svg" height="120" id="S_Illu_DeveloperCommunity_180x120" viewBox="0 0 180 120" width="180">
  <defs>
    <style>
	.cls-1 {
        fill: #b3b3b3;
      }
	.cls-2 {
        fill: #ff00b8;
      }</style>
  </defs>
  <title>S_Illu_DeveloperCommunity_180x120</title>
  <path class="cls-1" d="M159.594,113.2a2.4,2.4,0,0,1-1.675-.681L147.1,102H88.749A8.759,8.759,0,0,1,80,93.251V76.75A8.76,8.76,0,0,1,88.75,68h74.5A8.76,8.76,0,0,1,172,76.75v16.5a8.76,8.76,0,0,1-8.75,8.75H162v8.793a2.406,2.406,0,0,1-2.406,2.4ZM88.75,71A5.756,5.756,0,0,0,83,76.75v16.5A5.756,5.756,0,0,0,88.749,99h58.958a1.5,1.5,0,0,1,1.046.425L159,109.384V100.5a1.5,1.5,0,0,1,1.5-1.5h2.75A5.756,5.756,0,0,0,169,93.25V76.75A5.756,5.756,0,0,0,163.25,71Z" />
  <path class="cls-1" d="M160.978,81.75H91.691a.75.75,0,0,1,0-1.5h69.287a.75.75,0,0,1,0,1.5Z" />
  <path class="cls-1" d="M150.978,88.75H91.568a.75.75,0,1,1,0-1.5h59.41a.75.75,0,0,1,0,1.5Z" />
  <path class="cls-1" d="M134.25,52h-26.5a1.5,1.5,0,0,1,0-3h26.5A5.757,5.757,0,0,0,140,43.25V31.5a1.5,1.5,0,0,1,.42-1.04L150.293,20.2H141.5a1.5,1.5,0,0,1-1.5-1.5V16.75A5.757,5.757,0,0,0,134.25,11H99.75A5.757,5.757,0,0,0,94,16.75a1.5,1.5,0,0,1-3,0A8.76,8.76,0,0,1,99.75,8h34.5A8.76,8.76,0,0,1,143,16.75V17.2h8.693a2.4,2.4,0,0,1,1.724,4.081L143,32.1V43.25A8.76,8.76,0,0,1,134.25,52Zm17.012-32.8,0,0Z" />
  <path class="cls-2" d="M36.916,97.973a2.7,2.7,0,0,1-1.049-.213A3.31,3.31,0,0,1,34,95V83H32A10.882,10.882,0,0,1,21,72.085v-39A11.1,11.1,0,0,1,32.085,22h58.83A11.1,11.1,0,0,1,102,33.084v29.9a1.5,1.5,0,1,1-3,0v-29.9A8.093,8.093,0,0,0,90.915,25H32.085A8.093,8.093,0,0,0,24,33.084v39a8.094,8.094,0,0,0,8.085,8.084H35.5a1.5,1.5,0,0,1,1.5,1.5V95L51.581,80.418A1.487,1.487,0,0,1,52.633,80H73a1.494,1.494,0,1,1,0,2.987H53.247L38.8,97.2A2.7,2.7,0,0,1,36.916,97.973Z" />
  <path class="cls-2" d="M61.669,73.836H59.331a2.617,2.617,0,0,1-2.024-.95L54.671,69.7a2.588,2.588,0,0,1-.6-1.649V61a.863.863,0,0,0-.193-.542c-.51-.63-1-1.226-1.469-1.794-3.621-4.4-6.013-7.3-6.013-12.257A14.224,14.224,0,0,1,50.691,36.14a13.67,13.67,0,0,1,9.612-3.9l.066-.014a1.084,1.084,0,0,1,.2-.025,13.628,13.628,0,0,1,9.736,3.9A14.227,14.227,0,0,1,74.6,46.367c0,4.709-2.143,7.554-5.641,11.805a9.012,9.012,0,0,0-2.035,5.714v4.16a2.6,2.6,0,0,1-.6,1.655l-2.636,3.185A2.614,2.614,0,0,1,61.669,73.836ZM56,63.9V68.05c0,.137.138.272.227.379l2.637,3.188a.6.6,0,0,0,.467.219h2.338a.6.6,0,0,0,.466-.219l2.637-3.185c.089-.108.228-.246.228-.386v-4.16a10.923,10.923,0,0,1,2.4-6.98c3.312-4.026,5.186-6.5,5.186-10.539A12.242,12.242,0,0,0,68.9,37.526,11.524,11.524,0,0,0,60.8,34.2h-.092l-.078.017a1.034,1.034,0,0,1-.238.025A11.556,11.556,0,0,0,52.1,37.566a12.243,12.243,0,0,0-3.69,8.842c0,4.244,2.092,6.784,5.558,10.991.472.572.966,1.172,1.48,1.807A2.859,2.859,0,0,1,56.089,61v1h4.828a.926.926,0,0,1,1.007.9,1,1,0,0,1-1.007,1Z" />
  <path class="cls-2" d="M59.69,59.374a1,1,0,0,1-.948-.684L55.345,48.5a2.14,2.14,0,0,1,2.03-2.817H63.1A2.142,2.142,0,0,1,65.18,48.34l-.622,2.481a1,1,0,1,1-1.94-.485l.621-2.481a.141.141,0,0,0-.136-.174H57.375a.141.141,0,0,0-.134.184l3.4,10.193a1,1,0,0,1-.949,1.316Z" />
  <path class="cls-1" d="M123.77,24.791a6.09,6.09,0,0,1-2.077,4.5c-1.246,1.246-2.492,2.364-2.492,3.482a3.614,3.614,0,0,0,.639,1.949c.064.1.031.191-.128.191H117.8a.46.46,0,0,1-.32-.095,3.686,3.686,0,0,1-.767-2.3c0-1.534,1.118-2.62,2.62-4.154,1.15-1.182,1.725-1.98,1.725-3.259,0-1.6-1.022-2.715-3.163-2.715a7.427,7.427,0,0,0-3.93,1.086.117.117,0,0,1-.191-.1v-2.14c0-.128,0-.192.095-.256a8.68,8.68,0,0,1,4.441-1.118C121.82,19.871,123.77,22.012,123.77,24.791ZM116.965,40a1.56,1.56,0,0,1,1.629-1.63A1.543,1.543,0,0,1,120.223,40a1.629,1.629,0,0,1-3.258,0Z" />
  </svg>